<?xml version="1.0"?>
<svg version="1.1" xmlns="http://www.w3.org/2000/svg" width="200px" height="104px" style="border: 2px solid black;border-radius: 25px;"><path fill="#0b7519" d="M34.1005859375,33.0791015625q-0.1220703125-1.4892578125,0.1953125-2.587890625t1.26953125-1.806640625t3.0517578125-0.7080078125l7.861328125,0q1.611328125,0,4.2236328125,0.1708984375t5.615234375,0.5126953125t5.9814453125,1.0498046875t5.4443359375,1.7578125t4.00390625,2.587890625t1.5380859375,3.6376953125q0,2.978515625-1.7333984375,5.5908203125t-4.345703125,4.7119140625t-5.517578125,3.7353515625t-5.2001953125,2.9541015625q9.08203125,2.001953125,14.208984375,8.30078125t5.126953125,15.72265625q0,4.98046875-1.904296875,9.8388671875t-5.2001953125,8.7646484375t-7.8125,6.298828125t-9.6923828125,2.392578125q-0.68359375,0-1.5380859375-0.146484375t-1.5625-0.4638671875t-1.220703125-0.9033203125t-0.5126953125-1.513671875q0-4.296875,4.638671875-4.296875q0.78125,0,1.8310546875,0.2197265625t1.6357421875,0.9033203125q2.685546875-1.123046875,4.9072265625-3.564453125t3.759765625-5.4443359375t2.392578125-6.298828125t0.8544921875-5.9814453125q0-3.22265625-0.9521484375-6.5673828125t-2.7587890625-6.201171875t-4.443359375-4.8095703125t-6.0546875-2.44140625q-0.87890625-0.09765625-1.9287109375-0.146484375l-2.099609375-0.09765625t-2.05078125-0.29296875t-1.7333984375-0.78125q0.390625,8.10546875,1.0009765625,16.162109375t1.6357421875,16.162109375q0.390625,0.390625,0.537109375,1.1474609375t0.244140625,1.611328125t0.09765625,1.6357421875l0,1.318359375q0,0.87890625-0.5859375,1.4404296875t-1.3916015625,0.9033203125t-1.708984375,0.439453125t-1.5869140625,0.09765625q-2.197265625,0-3.369140625-0.5859375t-1.66015625-1.708984375t-0.634765625-2.5634765625t-0.244140625-3.1494140625q-1.318359375-13.623046875-1.904296875-26.953125t-0.5859375-26.953125q0-1.611328125-0.1220703125-3.1005859375z M43.109375,31.00390625q0,6.005859375,0.390625,12.0361328125t0.68359375,12.0361328125q2.197265625-1.318359375,5.76171875-3.1005859375t6.9091796875-3.9306640625t5.7373046875-4.736328125t2.392578125-5.615234375q0-2.392578125-2.83203125-3.6376953125t-6.591796875-1.85546875t-7.3486328125-0.7568359375t-5.1025390625-0.439453125z M85.76904296875,92.72265625q0-1.708984375,1.171875-2.1728515625t2.5390625-0.4638671875q2.392578125,0,4.052734375,2.1484375t3.1494140625,4.7119140625t2.9541015625,4.7119140625t3.466796875,2.1484375q1.513671875,0,2.7587890625-0.7568359375t2.1484375-1.904296875t1.3916015625-2.587890625t0.48828125-2.8564453125q0-3.7109375-1.4892578125-7.666015625t-3.80859375-8.154296875t-4.9072265625-8.59375t-4.8828125-8.935546875t-3.80859375-9.2529296875t-1.513671875-9.4970703125q0-7.177734375,4.296875-11.1328125t11.328125-3.955078125q2.392578125,0,4.833984375,0.68359375t4.4921875,2.05078125t3.3447265625,3.369140625t1.2939453125,4.6875q0,0.87890625-1.2939453125,1.1474609375t-1.8798828125,0.2685546875q-0.87890625,0-1.904296875-0.2197265625t-1.318359375-1.1962890625t-0.830078125-2.24609375t-1.3427734375-2.3681640625t-1.904296875-1.904296875t-2.4169921875-0.8056640625q-2.197265625,0-3.7353515625,0.9033203125t-2.490234375,2.4169921875t-1.416015625,3.3935546875t-0.4638671875,3.8818359375q0,4.6875,1.611328125,9.4482421875t4.00390625,9.47265625t5.2001953125,9.3017578125t5.2001953125,8.935546875t4.00390625,8.49609375t1.611328125,7.861328125q0,3.3203125-1.5625,5.615234375t-3.955078125,3.7353515625t-5.2978515625,2.099609375t-5.6884765625,0.6591796875q-2.978515625,0-6.103515625-1.1962890625t-5.615234375-3.2958984375t-4.1015625-4.9072265625t-1.611328125-6.0791015625z M129.7958984375,60.3984375q0-3.22265625,0.2685546875-7.0556640625t0.9521484375-7.6904296875t2.05078125-7.4462890625t3.515625-6.396484375t5.2490234375-4.4677734375t7.3974609375-1.66015625q3.41796875,0,6.298828125,1.318359375t5.029296875,3.564453125t3.3447265625,5.2490234375t1.1962890625,6.2744140625q0,0.87890625-1.1962890625,1.0986328125t-1.6845703125,0.2197265625q-0.87890625,0-1.6845703125-0.146484375t-1.1962890625-1.171875q-0.68359375-1.904296875-1.4404296875-4.00390625t-1.85546875-3.8330078125t-2.7099609375-2.8564453125q-1.46484375-0.9765625-3.7109375-0.9765625l-0.390625,0q-4.1015625,0.09765625-6.103515625,2.9296875t-2.7587890625,6.884765625t-0.7568359375,8.59375l0,8.056640625q0,2.001953125,0.146484375,5.810546875t0.7080078125,8.30078125t1.46484375,9.1552734375t2.44140625,8.49609375t3.6865234375,6.25t5.17578125,2.4169921875q2.685546875,0,4.6875-1.85546875t3.4423828125-4.7607421875t2.44140625-6.494140625t1.66015625-7.2021484375t1.0009765625-6.7138671875t0.537109375-5.1025390625q-0.537109375-0.048828125-1.025390625-0.048828125q-2.294921875,0-4.4921875,0.732421875q-2.783203125,0.830078125-5.56640625,0.830078125q-0.390625,0-1.0498046875-0.048828125t-1.2451171875-0.244140625t-1.0498046875-0.5615234375t-0.4638671875-0.9521484375q0-1.123046875,2.4658203125-1.904296875t5.615234375-1.3427734375t6.0791015625-0.8056640625t3.857421875-0.244140625q0.48828125,0,1.3916015625,0.09765625t1.806640625,0.341796875t1.5380859375,0.7080078125t0.634765625,1.1474609375q0,0.5859375-0.439453125,1.0498046875t-1.0986328125,0.7080078125t-1.3427734375,0.341796875t-1.07421875,0.09765625q0.048828125,1.123046875,0.048828125,2.294921875q0,2.63671875-0.146484375,5.615234375q-0.244140625,4.296875-0.9765625,8.59375t-2.24609375,8.349609375t-3.857421875,7.1533203125t-5.7861328125,5.0048828125t-8.1787109375,1.904296875q-5.17578125,0-8.740234375-2.197265625t-5.810546875-5.859375t-3.4912109375-8.30078125t-1.7822265625-9.4970703125t-0.6591796875-9.4482421875t-0.1220703125-8.30078125z"/><path fill="#" d=""/></svg>
