<?xml version="1.0"?>
<svg version="1.1" xmlns="http://www.w3.org/2000/svg" width="301px" height="54px" style="border: 2px solid black;border-radius: 25px;"><path fill="#098f26" d="M54.375,43.1l0-18.9l-2.975-0.7l0-1.925l6.475-0.175l4.025,0c4.375,0,7.525,1.925,7.525,6.125c0,3.15-1.61,4.935-4.55,5.67c3.675,0.84,5.425,2.905,5.425,5.705c0,4.9-3.15,7-8.925,7l-9.975,0l0-2.1z M57.875,31.9l2.625,0c3.15,0,5.25-1.225,5.25-4.025c0-2.45-1.75-3.675-4.025-3.675l-3.85,0l0,7.7z M57.875,43.1l3.675,0c3.325,0,5.075-1.4,5.075-4.025c0-3.5-2.275-4.55-6.125-4.55l-2.625,0l0,8.575z M85.021,43.975l0,1.925l-9.695,0l0-1.925l2.975-0.875l0-21.35l-2.975-0.7l0-1.925l6.545-0.175l0,24.15z M90.397,32.775l-0.175-4.375s3.85-1.4,6.825-1.4c4.06,0,6.475,1.4,6.475,5.425l0,10.675l2.8,0.7l0,1.925l-5.425,0.175l-0.735-2.45c-1.19,1.19-3.29,2.8-5.74,2.8c-3.325,0-5.25-1.925-5.25-5.25c0-4.025,3.15-5.425,8.05-5.425l2.8,0l0-2.8c0-2.1-1.225-3.15-3.325-3.15s-3.535,0.525-3.535,0.525l-0.49,2.625l-2.275,0z M100.022,37.85l-2.45,0c-3.5,0-4.83,0.875-4.83,2.975c0,1.575,0.98,2.625,2.555,2.625c2.625,0,4.725-2.8,4.725-2.8l0-2.8z M123.773,33.125l-0.525-2.975s-1.4-0.35-3.15-0.35c-3.325,0-5.25,2.1-5.25,6.475c0,4.725,2.1,7.175,5.425,7.175s5.425-2.1,5.425-2.1l1.225,2.1s-3.15,2.8-7,2.8c-5.775,0-8.75-3.675-8.75-9.625c0-5.6,3.5-9.625,9.1-9.625c3.15,0,5.95,1.4,5.95,1.4l-0.175,4.725l-2.275,0z M140.349,34.35l2.625-4.41l-1.575-0.49l0-1.925l7.7-0.175l0,2.1l-2.485,0.42l-0.035,0l-3.605,5.355l4.515,7.875l0.035,0l2.625,0.875l0,1.925l-4.725,0l-5.005-8.925l-3.045,0l0,6.125l2.275,0.875l0,1.925l-8.75,0l0-1.925l2.975-0.875l0-21.35l-2.975-0.7l0-1.925l6.475-0.175l0,15.4l2.975,0z M157.975,38.725l0.7,3.675s1.575,0.875,3.85,0.875c2.555,0,5.355-1.26,5.355-3.745c0-5.39-12.635-3.15-12.635-11.515c0-4.9,3.92-6.965,8.295-6.965c3.325,0,7.385,1.4,7.385,1.4l-0.175,5.95l-2.275,0l-1.19-3.745s-1.785-0.63-3.71-0.63c-3.15,0-4.655,1.645-4.655,3.395c0,5.32,12.6,3.29,12.6,11.165c0,5.25-4.235,7.665-9.135,7.665c-3.675,0-7.21-1.4-7.21-1.4l0-6.125l2.8,0z M183.196,27.35l0.315,2.485c0.84-0.735,3.605-2.835,6.51-2.835c3.85,0,5.6,2.45,5.6,6.3l0,9.8l2.625,0.875l0,1.925l-8.4,0l0-1.925l2.275-0.875l0-9.45c0-2.45-0.875-3.675-3.15-3.675c-2.975,0-5.075,2.8-5.075,2.8l0,10.325l2.275,0.875l0,1.925l-8.75,0l0-1.925l2.975-0.875l0-12.95l-2.975-0.7l0-1.925z M212.022,27c5.25,0,8.225,3.675,8.225,9.275c0,5.95-3.5,9.975-8.75,9.975s-8.4-3.15-8.4-9.45c0-5.95,3.675-9.8,8.925-9.8z M211.847,29.8c-3.5,0-5.075,2.275-5.075,6.825c0,4.2,1.4,6.825,4.9,6.825s4.9-2.45,4.9-7c0-3.85-1.225-6.65-4.725-6.65z M229.473,29.8l2.975,12.95l4.585-15.225l3.325-0.525l4.34,15.75l2.8-12.775l-2.45-0.525l0-1.925l7.875-0.175l0,2.1l-2.03,0.35l-4.27,16.1l-4.025,0l-3.325-10.85l-0.84-3.36l-0.735,3.36l-3.325,10.85l-4.025,0l-4.375-15.925l-1.75-0.525l0-1.925l7.875-0.175l0,2.1z"/><path fill="#146e0a" d=""/></svg>
